<svg width="29" height="30" viewBox="0 0 29 30" fill="none" xmlns="http://www.w3.org/2000/svg">
<path fill-rule="evenodd" clip-rule="evenodd" d="M12.0905 19.7364V27.6766C12.0905 28.4071 11.5203 29 10.8178 29H1.90871C1.20617 29 0.635986 28.4071 0.635986 27.6766V13.0679C0.635986 11.8623 1.1629 10.7215 2.06908 9.96852L11.4554 2.15928C13.3149 0.613574 15.9571 0.613574 17.8165 2.15928L27.2029 9.96852C28.1091 10.7215 28.636 11.8623 28.636 13.0679V27.6766C28.636 28.4071 28.0658 29 27.3633 29H18.4542C17.7516 29 17.1814 28.4071 17.1814 27.6766V19.7364C17.1814 18.5546 16.0805 17.3755 14.636 17.1055C13.1914 17.3755 12.0905 18.5546 12.0905 19.7364Z" fill="#c62910"/>
<path d="M2.06908 9.96852L2.22885 10.1608L2.22897 10.1607L2.06908 9.96852ZM11.4554 2.15928L11.2956 1.96703L11.2955 1.96709L11.4554 2.15928ZM17.8165 2.15928L17.9764 1.96709L17.9763 1.96703L17.8165 2.15928ZM27.2029 9.96852L27.043 10.1607L27.0431 10.1608L27.2029 9.96852ZM14.636 17.1055L14.6819 16.8597L14.636 16.8512L14.5901 16.8597L14.636 17.1055ZM11.8405 19.7364V27.6766H12.3405V19.7364H11.8405ZM11.8405 27.6766C11.8405 28.2783 11.3732 28.75 10.8178 28.75V29.25C11.6675 29.25 12.3405 28.5359 12.3405 27.6766H11.8405ZM10.8178 28.75H1.90871V29.25H10.8178V28.75ZM1.90871 28.75C1.35334 28.75 0.885986 28.2783 0.885986 27.6766H0.385986C0.385986 28.5359 1.05899 29.25 1.90871 29.25V28.75ZM0.885986 27.6766V13.0679H0.385986V27.6766H0.885986ZM0.885986 13.0679C0.885986 11.9345 1.38144 10.865 2.22885 10.1608L1.9093 9.77624C0.944346 10.5781 0.385986 11.7901 0.385986 13.0679H0.885986ZM2.22897 10.1607L11.6153 2.35146L11.2955 1.96709L1.90918 9.77634L2.22897 10.1607ZM11.6153 2.35153C13.3821 0.882824 15.8899 0.882824 17.6567 2.35153L17.9763 1.96703C16.0243 0.344324 13.2477 0.344324 11.2956 1.96703L11.6153 2.35153ZM17.6566 2.35146L27.043 10.1607L27.3628 9.77634L17.9764 1.96709L17.6566 2.35146ZM27.0431 10.1608C27.8905 10.865 28.386 11.9345 28.386 13.0679H28.886C28.886 11.7901 28.3276 10.5781 27.3627 9.77624L27.0431 10.1608ZM28.386 13.0679V27.6766H28.886V13.0679H28.386ZM28.386 27.6766C28.386 28.2783 27.9186 28.75 27.3633 28.75V29.25C28.213 29.25 28.886 28.5359 28.886 27.6766H28.386ZM27.3633 28.75H18.4542V29.25H27.3633V28.75ZM18.4542 28.75C17.8988 28.75 17.4314 28.2783 17.4314 27.6766H16.9314C16.9314 28.5359 17.6044 29.25 18.4542 29.25V28.75ZM17.4314 27.6766V19.7364H16.9314V27.6766H17.4314ZM17.4314 19.7364C17.4314 18.405 16.2135 17.146 14.6819 16.8597L14.5901 17.3512C15.9475 17.6049 16.9314 18.7041 16.9314 19.7364H17.4314ZM14.5901 16.8597C13.0584 17.146 11.8405 18.405 11.8405 19.7364H12.3405C12.3405 18.7041 13.3244 17.6049 14.6819 17.3512L14.5901 16.8597Z" fill="#575757"/>
</svg>
