<svg width="30" height="30" viewBox="0 0 30 30" fill="none" xmlns="http://www.w3.org/2000/svg">
<path fill-rule="evenodd" clip-rule="evenodd" d="M12.0564 19.7364V27.6766C12.0564 28.4071 11.4862 29 10.7836 29H1.87453C1.17199 29 0.601807 28.4071 0.601807 27.6766V13.0679C0.601807 11.8623 1.12872 10.7215 2.0349 9.96852L11.4213 2.15928C13.2807 0.613574 15.9229 0.613574 17.7824 2.15928L27.1687 9.96852C28.0749 10.7215 28.6018 11.8623 28.6018 13.0679V27.6766C28.6018 28.4071 28.0316 29 27.3291 29H18.42C17.7174 29 17.1473 28.4071 17.1473 27.6766V19.7364C17.1473 18.5546 16.0464 17.3755 14.6018 17.1055C13.1573 17.3755 12.0564 18.5546 12.0564 19.7364V19.7364Z" stroke="#c62910"/>
</svg>
