<svg width="25" height="28" viewBox="0 0 25 28" fill="none" xmlns="http://www.w3.org/2000/svg">
<path d="M19.5 2.96899H13.5C12.9477 2.96899 12.5 3.41671 12.5 3.96899V14.1027M19.5 25.2365H13.5C12.9477 25.2365 12.5 24.7888 12.5 24.2365V14.1027M12.5 14.1027H19.5M12.5 14.1027H5.5" stroke="#c62910" stroke-width="2"/>
<path d="M5.5 14.3424C5.5 12.8544 4.35775 11.6907 3 11.6907C1.64225 11.6907 0.5 12.8544 0.5 14.3424C0.5 15.8305 1.64225 16.9941 3 16.9941C4.35775 16.9941 5.5 15.8305 5.5 14.3424Z" fill="#c62910" stroke="#c62910"/>
<path d="M24.5 3.15176C24.5 1.66373 23.3578 0.500052 22 0.500052C20.6422 0.500052 19.5 1.66373 19.5 3.15176C19.5 4.63979 20.6422 5.80347 22 5.80347C23.3578 5.80347 24.5 4.63979 24.5 3.15176Z" fill="#c62910" stroke="#c62910"/>
<path d="M24.5 14.3427C24.5 12.8547 23.3578 11.691 22 11.691C20.6422 11.691 19.5 12.8547 19.5 14.3427C19.5 15.8307 20.6422 16.9944 22 16.9944C23.3578 16.9944 24.5 15.8307 24.5 14.3427Z" fill="#c62910" stroke="#c62910"/>
<path d="M24.5 24.8483C24.5 23.3603 23.3578 22.1966 22 22.1966C20.6422 22.1966 19.5 23.3603 19.5 24.8483C19.5 26.3363 20.6422 27.5 22 27.5C23.3578 27.5 24.5 26.3363 24.5 24.8483Z" fill="#c62910" stroke="#c62910"/>
</svg>
